<?xml version="1.0" standalone="yes"?>
<svg xmlns="http://www.w3.org/2000/svg" width="300" height="168">
<path style="fill:#646463; stroke:none;" d="M0 0L0 4L1 4L2 0L0 0z"/>
<path style="fill:#8e756f; stroke:none;" d="M2 0C-3.74126 18.5242 0.354853 41.8986 0.134259 61.0147C0.0520811 68.136 -0.098546 77.2632 8 80L8 75L9 75L10 80L15 80L11 100L14 101L18 100L20 103L19 101L20 101L22 104L51 111L51 110L33 106C35.0355 103.043 35.1141 101.015 32 99L32 77C34.1283 77 48.0864 74.7742 44 72L44 71L48 72L48 68L32 66C32.8889 61.4273 32.2704 58.368 29 55L32 51L24 53L27 49L24 47L16 57L16 48L19 48C19.0587 40.9109 19.9332 36.2691 16 30L24 30L27 25L27 24L11 24L20 16L28 8L24 1L2 0z"/>
<path style="fill:#899096; stroke:none;" d="M16 0L16 1L24 1L28 8L20 16C15.0486 16.7662 12.5962 19.3212 11 24L27 24L27 25L24 30L16 30L19 48L16 48L16 57C20.2859 55.3361 22.828 51.3689 24 47L27 49L24 53L32 51L29 55L32 66L48 68L48 72L44 71L44 72L46 73L32 77L32 99C34.4562 101.474 34.6045 102.897 33 106C37.0066 107.145 49.3653 107.667 50 112C72.0894 111.604 89.7887 126.363 112 115L112 114L102 116L104 112L98 118L94 117L94 112L92 112L92 117L85 118L85 117L88 117L88 116L74 116L74 115L78 115L78 114L74 114L74 113L76 113L76 112C72.1022 111.427 66.9508 108.676 64 112L63 112L64 102C60.2819 100.761 62.2769 97.9577 65 100L72 90L64 90L59 70L64 72L70 68L70 66L67 65C71.1345 59.0959 67.6513 51.144 61 49L61 48L64 48L68 16L73 17L72 14L89 12L90 8L94 8L95 12L100 11L103 0L16 0z"/>
<path style="fill:#b1aba8; stroke:none;" d="M100 11L95 12L94 8L90 8L89 12L72 14L73 17L68 16C65.7922 24.4295 68.8029 43.0035 61 48L61 49C67.1468 52.292 70.5615 58.5859 67 65L70 66L70 68L64 72L59 70L64 90L72 90L65 100L63 98C61.0475 100.26 60.909 101.35 64 102L63 112L64 112L76 112L76 113L74 113L74 114L78 114L78 115L74 115L74 116L88 116L88 117L85 117L85 118L92 117L92 112L94 112L94 117L98 118L104 112L102 116L112 114L112 115C100.349 119.169 93.2095 119.101 81 119L81 120L96 122L96 123L80 126L80 128L92 127L94 134L95 134L95 130L99 131L99 132L96 132L96 136L86 137L80 130L59 126L59 127L62 127L62 128L26 123L27 120L17 118L0 117C0.161417 130.619 21.8846 128.566 32 129L32 130L29 130L29 131C43.9292 129.123 58.1889 133.955 72.0147 137.468C81.2948 139.825 90.9169 139.121 100 142L100 144L95 145L95 146L131 142L131 141L112 142L112 141L120 140L120 139L105 141L104 138L113 137C120.213 130.614 130.09 131.08 139 130.336C147.249 129.646 155.482 126.063 164 125.329C172.57 124.59 181.401 126.961 190 126L185 127L181 130L181 131L192 129C188.296 117.783 174.566 127.961 168 121L205 126L200 121L210 122L210 123L206 123L208 127L203 127L208 133L202 130L206 134L201 133L200 133L200 138L192 136L190 137L190 135L156 143L143 146L141 151C130.815 147.725 123.678 151.513 113.996 152.236C108.874 152.618 103.668 150.341 99 153L102 154L101 157L98 155L97 155L96 155L88 158L88 160L95 160L78 166C126.111 172.126 177.288 168 226 168L228 160L221 160L208 144L216 144L216 147C225.546 146.966 223.207 142.212 229.185 136.88C231.604 134.722 236.598 132.165 235.539 128.109C234.421 123.823 227.517 123.455 224 123L224 112L216 102L212 104C219.013 96.755 214.33 86.4584 207 81L206 84L205 84L205 76L206 76L206 78L207 78L206 71L216 70L216 66L208 65C204.423 68.4166 199.686 70.4365 199 64L202 65L205 62L205 61L201 63L200 63L202 59L200 54L203 55C205.967 48.7129 209.907 35.3389 219 39L218 33C222.058 32.2848 217.104 28.5359 215 28L216 25L211 26L213 8C210.199 5.91806 208.047 2.30508 204.871 0.858032C199.257 -1.69965 190.071 0 184 0L137 0C131.015 0 116.071 -2.65927 112 2C103.438 -1.62375 101.811 3.29893 100 11z"/>
<path style="fill:#899096; stroke:none;" d="M109 0L112 2L109 0M205 0L205 1L213 8L211 26L216 25L215 28C218.539 28.5898 222.126 34.0314 218 33L219 39L224 40L223 46L229 45L229 48L223 47L221 53L218 53L222 60L216 54L216 57L213 55L209 59L209 62C205.457 61.328 203.971 61.9724 202 65L199 64C198.302 71.1888 205.006 69.3404 208 65L216 66L216 70L206 71L207 78L206 78L206 76L205 76L205 84L206 84L207 81C213.753 88.1389 218.159 95.4468 212 104L216 102L224 112L221 113L224 123C227.303 123.643 234.539 124.318 235.234 128.62C235.825 132.279 230.585 134.833 228.46 136.88C223.109 142.033 224.987 146.894 216 147L216 144L208 144L221 160L228 160L226 168L256 168L262 159L256 157L252 160C251.791 153.61 259.011 154.029 264 152L264 150L262 136L272 128L275 121L272 120L277.767 102L276 88L280 88L283 80L280 77L289 82L285 77L285 72L282 72L285 48C280.306 42.8575 279.603 40.0269 272 40L272 37L281 38C284.801 29.735 279.201 28.0056 272 28L272 22L264 24L266 16L261 16L256 27C254.832 21.5491 250.739 26.1228 248 28L247 16L256 22L256 12L264 14L264 2L265 2L265 8L268 8L268 0L205 0z"/>
<path style="fill:#8e756f; stroke:none;" d="M236 0L236 1L240 2L236 0M268 0L268 8L265 8L265 2L264 2L264 14L256 12L256 22L247 16L248 28C251.078 26.4825 253.573 23.5843 256 27C259.948 24.7316 260.306 20.2885 261 16L266 16L264 24L272 22L272 28C279.312 28.0258 283.516 30.0874 281 38L272 37L272 40C279.551 40.0894 279.723 44.1697 285 48L282 72L285 72L285 77L289 82L280 77L283 80L280 88L276 88C276 92.5257 278.697 97.804 277.75 102C276.406 107.959 266.295 115.271 275 121L272 128L262 136C264.466 140.815 257.696 146.008 264 150L264 152C258.68 153.503 250.85 153.168 252 160L256 157L262 159L256 168C261.415 168 275.123 170.649 275 163C265.808 165.559 271.077 156.162 275 153L272 152L272 149C284.463 146.738 286.776 137.669 282 128L300 113L300 112L296 112C300.946 106.591 300 101.025 300 94L300 58L296 58L296 46C301.465 44.1862 300 37.8447 300 33L296 33L296 32L299 32L300 20L296 20C295.689 15.3039 293.389 3.91843 289.351 1.02779C284.245 -2.62788 273.055 -0.37822 272 6L271 6L271 0L268 0z"/>
<path style="fill:#899096; stroke:none;" d="M271 0L271 6L272 6L276 1L271 0z"/>
<path style="fill:#646463; stroke:none;" d="M290 0L296 20L300 20L300 0L290 0z"/>
<path style="fill:#b1aba8; stroke:none;" d="M80 5L83 8L82 5L80 5M72.3333 6.66667L72.6667 7.33333L72.3333 6.66667z"/>
<path style="fill:#899096; stroke:none;" d="M272 6L272 10L276 8L276 7L272 6z"/>
<path style="fill:#8e756f; stroke:none;" d="M232 7L233 8L232 7z"/>
<path style="fill:#646463; stroke:none;" d="M0.333333 8.66667L0.666667 9.33333L0.333333 8.66667z"/>
<path style="fill:#899096; stroke:none;" d="M16 8L16 10L18 10L18 8L16 8z"/>
<path style="fill:#b1aba8; stroke:none;" d="M64 8L64 12L69 8L64 8z"/>
<path style="fill:#899096; stroke:none;" d="M154 8L155 9L154 8M101 11L104 13L101 11z"/>
<path style="fill:#8e756f; stroke:none;" d="M247.333 11.6667L247.667 12.3333L247.333 11.6667z"/>
<path style="fill:#646463; stroke:none;" d="M159 13L159 18L160 18L159 13z"/>
<path style="fill:#899096; stroke:none;" d="M96 14L96 16L98 16L96 14M158 14L159 15L158 14z"/>
<path style="fill:#8e756f; stroke:none;" d="M147.333 16.6667L147.667 17.3333L147.333 16.6667z"/>
<path style="fill:#899096; stroke:none;" d="M148 16L149 17L148 16M161 16L162 17L161 16z"/>
<path style="fill:#646463; stroke:none;" d="M148 17L148 18L152 20L148 17z"/>
<path style="fill:#899096; stroke:none;" d="M160 17L161 18L160 17M162 17L163 18L162 17M151 18L152 19L151 18M154 18L155 19L154 18M159 18L156 19L156 20L159 18z"/>
<path style="fill:#8e756f; stroke:none;" d="M242 18L242 22L243 22L242 18z"/>
<path style="fill:#899096; stroke:none;" d="M150 19L151 20L150 19M163 19L164 20L163 19M166 19L169 22L166 19z"/>
<path style="fill:#646463; stroke:none;" d="M152 44L161 43C160.203 36.7454 166.168 33.0424 165.667 27.0008C165.081 19.9471 155.404 17.5822 152.042 24.0586C149.541 28.8777 153.086 38.149 152 44z"/>
<path style="fill:#899096; stroke:none;" d="M153 21L154 22L153 21M155 21L156 22L155 21z"/>
<path style="fill:#ccbb51; stroke:none;" d="M152 27L153 28L161 30L161 31L155 30L157 41C160.314 37.5902 164.803 32.133 164.066 27.0046C162.863 18.6292 154.436 21.1314 152 27z"/>
<path style="fill:#646463; stroke:none;" d="M167 24L171 22L167 24z"/>
<path style="fill:#8e756f; stroke:none;" d="M171 21L172 22L171 21z"/>
<path style="fill:#899096; stroke:none;" d="M175 21L176 22L175 21M162 22L163 23L162 22M170 22L171 23L170 22M173 22L174 23L173 22z"/>
<path style="fill:#ccbb51; stroke:none;" d="M151 23L152 24L151 23z"/>
<path style="fill:#b1aba8; stroke:none;" d="M63 24L59 32L62 40L64 40L63 24z"/>
<path style="fill:#ccbb51; stroke:none;" d="M150 24L151 25L150 24z"/>
<path style="fill:#899096; stroke:none;" d="M165 24L166 25L165 24M208 24L209 25L208 24z"/>
<path style="fill:#8e756f; stroke:none;" d="M238.667 24.3333L239.333 24.6667L238.667 24.3333z"/>
<path style="fill:#b1aba8; stroke:none;" d="M152 25L153 26L152 25z"/>
<path style="fill:#899096; stroke:none;" d="M213 25L210 29L214 31L211 30L211 31L214 32L215 31L213 25z"/>
<path style="fill:#8e756f; stroke:none;" d="M143 26L144 27L143 26z"/>
<path style="fill:#646463; stroke:none;" d="M144 26L144 27L149 27L144 26z"/>
<path style="fill:#ccbb51; stroke:none;" d="M150 26L151 27L150 26z"/>
<path style="fill:#899096; stroke:none;" d="M164.333 26.6667L164.667 27.3333L164.333 26.6667M143 27L144 28L143 27z"/>
<path style="fill:#b1aba8; stroke:none;" d="M152 27L153 28L152 27z"/>
<path style="fill:#899096; stroke:none;" d="M152 29L153 30L155 27L152 29z"/>
<path style="fill:#8e756f; stroke:none;" d="M155 27L156 28L155 27z"/>
<path style="fill:#899096; stroke:none;" d="M208 27L209 28L208 27z"/>
<path style="fill:#646463; stroke:none;" d="M154 28L154 29L160 31L160 30L154 28z"/>
<path style="fill:#899096; stroke:none;" d="M171 28L174 31L171 28z"/>
<path style="fill:#8e756f; stroke:none;" d="M268 32L272 32L272 28L268 32z"/>
<path style="fill:#646463; stroke:none;" d="M299 28L296 32L296 33L300 33L299 28z"/>
<path style="fill:#899096; stroke:none;" d="M147 29L148 30L147 29z"/>
<path style="fill:#646463; stroke:none;" d="M148 29L144 31L144 32L148 29z"/>
<path style="fill:#899096; stroke:none;" d="M151 29L152 30L151 29z"/>
<path style="fill:#8e756f; stroke:none;" d="M154.333 29.6667L154.667 30.3333L154.333 29.6667z"/>
<path style="fill:#899096; stroke:none;" d="M155 29L156 30L155 29z"/>
<path style="fill:#8e756f; stroke:none;" d="M159 29L160 30L159 29M156 30L157 31L156 30M160 30L161 31L160 30z"/>
<path style="fill:#646463; stroke:none;" d="M168 30L168 31L172 32L172 31L168 30z"/>
<path style="fill:#899096; stroke:none;" d="M208 30L207 33L205 32L204 32L204 33C206.538 32.9145 208.087 32.745 208 30M143 31L144 32L143 31z"/>
<path style="fill:#ccbb51; stroke:none;" d="M151 31L152 39L153 39L151 31z"/>
<path style="fill:#b1aba8; stroke:none;" d="M163 31L164 32L163 31z"/>
<path style="fill:#646463; stroke:none;" d="M211 31L213 36L214 36L211 31z"/>
<path style="fill:#b1aba8; stroke:none;" d="M152 32L153 33L152 32z"/>
<path style="fill:#8e756f; stroke:none;" d="M164 32L165 33L164 32z"/>
<path style="fill:#899096; stroke:none;" d="M166 32L167 33L166 32M217 32L218 33L217 32z"/>
<path style="fill:#8e756f; stroke:none;" d="M263 32L263 40L264 40L263 32z"/>
<path style="fill:#646463; stroke:none;" d="M166 33L166 34L171 36L171 35L166 33z"/>
<path style="fill:#899096; stroke:none;" d="M200 33L201 34L200 33M202 33L203 34L202 33M211 33L212 34L211 33z"/>
<path style="fill:#b1aba8; stroke:none;" d="M221 36L222 36L224 34L221 36z"/>
<path style="fill:#646463; stroke:none;" d="M96 34L96 39L97 39L96 34z"/>
<path style="fill:#899096; stroke:none;" d="M166 34L167 35L166 34M175 34L176 35L175 34M208 34L209 35L208 34M216 34L215 37L219 37L216 34M222 34L223 35L222 34z"/>
<path style="fill:#8e756f; stroke:none;" d="M223 34L224 35L223 34z"/>
<path style="fill:#899096; stroke:none;" d="M95 35L96 36L95 35M99 35L100 36L99 35z"/>
<path style="fill:#b1aba8; stroke:none;" d="M162 35L163 36L162 35z"/>
<path style="fill:#ccbb51; stroke:none;" d="M163 35L164 36L163 35z"/>
<path style="fill:#899096; stroke:none;" d="M171 35L172 36L171 35M210 35L210 38L211 38L210 35M212.333 35.6667L212.667 36.3333L212.333 35.6667z"/>
<path style="fill:#646463; stroke:none;" d="M222 35L221 39L222 39L222 35z"/>
<path style="fill:#899096; stroke:none;" d="M96 36L97 37L96 36z"/>
<path style="fill:#8e756f; stroke:none;" d="M154 36L155 37L154 36z"/>
<path style="fill:#899096; stroke:none;" d="M161 36L162 37L161 36z"/>
<path style="fill:#ccbb51; stroke:none;" d="M162 36L163 37L162 36z"/>
<path style="fill:#899096; stroke:none;" d="M165 36L166 37L165 36M204 36L202 37L202 38L204 36z"/>
<path style="fill:#b1aba8; stroke:none;" d="M154.333 37.6667L154.667 38.3333L154.333 37.6667z"/>
<path style="fill:#899096; stroke:none;" d="M159 37L160 38L159 37z"/>
<path style="fill:#ccbb51; stroke:none;" d="M161 37L162 38L161 37z"/>
<path style="fill:#646463; stroke:none;" d="M203 37L204 38L203 37z"/>
<path style="fill:#899096; stroke:none;" d="M214 37L215 38L214 37M216 37L217 38L216 37M95 38L96 39L95 38M104.667 38.3333L105.333 38.6667L104.667 38.3333z"/>
<path style="fill:#646463; stroke:none;" d="M204 38L204 39L208 41L204 38z"/>
<path style="fill:#899096; stroke:none;" d="M206 38L207 39L206 38M208 38L209 39L208 38z"/>
<path style="fill:#646463; stroke:none;" d="M201 55C202.281 59.418 204.603 60.5043 209 61C211.51 54.9516 217.818 55.1214 221.138 49.9059C224.764 44.2092 218.586 35.7787 212.109 39.1944C206.643 42.077 206.42 50.9727 201 55z"/>
<path style="fill:#8e756f; stroke:none;" d="M217 38L218 39L217 38z"/>
<path style="fill:#899096; stroke:none;" d="M96 39L97 40L96 39M98 39L99 40L98 39z"/>
<path style="fill:#8e756f; stroke:none;" d="M103 39L104 40L103 39z"/>
<path style="fill:#646463; stroke:none;" d="M104.667 39.3333L105.333 39.6667L104.667 39.3333z"/>
<path style="fill:#ccbb51; stroke:none;" d="M154 39L155 40L154 39z"/>
<path style="fill:#8e756f; stroke:none;" d="M155 39L156 40L155 39M207 39L208 40L207 39z"/>
<path style="fill:#899096; stroke:none;" d="M214.667 39.3333L215.333 39.6667L214.667 39.3333z"/>
<path style="fill:#8e756f; stroke:none;" d="M216 39L217 40L216 39M219 39L220 40L219 39z"/>
<path style="fill:#899096; stroke:none;" d="M84 40L83 42L84 40M90 40L91 41L90 40M94 40L95 41L94 40z"/>
<path style="fill:#646463; stroke:none;" d="M103 40L104 41L103 40z"/>
<path style="fill:#ccbb51; stroke:none;" d="M151 40L152 41L151 40z"/>
<path style="fill:#8e756f; stroke:none;" d="M152.333 40.6667L152.667 41.3333L152.333 40.6667z"/>
<path style="fill:#b1aba8; stroke:none;" d="M154 40L154 41L157 41L154 40M158 40L159 41L158 40z"/>
<path style="fill:#899096; stroke:none;" d="M208 40L209 41L208 40z"/>
<path style="fill:#ccbb51; stroke:none;" d="M210 44L215 50L211 46L210 46L207 55L206 55L207 52C202.999 59.0512 217.889 52.9014 219.968 48.9452C223.843 41.5732 213.819 37.0752 210 44z"/>
<path style="fill:#899096; stroke:none;" d="M218 40L219 41L218 40z"/>
<path style="fill:#8e756f; stroke:none;" d="M220 40L221 41L220 40z"/>
<path style="fill:#b1aba8; stroke:none;" d="M221 40L222 43L224 40L221 40z"/>
<path style="fill:#8e756f; stroke:none;" d="M222 40L223 41L222 40z"/>
<path style="fill:#646463; stroke:none;" d="M84 41L84 42L88 43L88 42L84 41z"/>
<path style="fill:#8e756f; stroke:none;" d="M86 41L87 42L86 41M92 41L93 42L92 41z"/>
<path style="fill:#646463; stroke:none;" d="M105 49L104 49C104.952 52.3664 107.704 56.8345 103 58L105 57L105 56L95 53L95 52L99 51L99 48L94 51L95 54C84.1616 50.1016 93.9063 37.1489 103 48C102.384 38.3497 86.0368 40.087 88.4529 49.9568C89.696 55.0346 111.356 64.9096 110.383 56.4738C110.071 53.7612 106.369 51.3343 105 49z"/>
<path style="fill:#899096; stroke:none;" d="M98 41L99 42L98 41M103 41L104 42L103 41M107 41L108 42L107 41z"/>
<path style="fill:#646463; stroke:none;" d="M108 41L109 42L108 41z"/>
<path style="fill:#899096; stroke:none;" d="M160 41L161 42L160 41M200.667 41.3333L201.333 41.6667L200.667 41.3333M207 41L208 42L207 41z"/>
<path style="fill:#8e756f; stroke:none;" d="M268 41L268 56L272 56L269 59L269 60L272 61L275 57L272 56L268 41z"/>
<path style="fill:#899096; stroke:none;" d="M85 42L86 43L85 42z"/>
<path style="fill:#8e756f; stroke:none;" d="M90 42L91 43L90 42z"/>
<path style="fill:#b1aba8; stroke:none;" d="M93 42L94 43L93 42z"/>
<path style="fill:#ccbb51; stroke:none;" d="M94 54L100 48L96 52L96 53L103 57C110.547 57.182 100.854 43.9952 96.9969 42.8364C88.8549 40.3905 87.5338 50.7383 94 54z"/>
<path style="fill:#899096; stroke:none;" d="M97 42L98 43L97 42z"/>
<path style="fill:#ccbb51; stroke:none;" d="M101 42L102 45L103 45L101 42z"/>
<path style="fill:#8e756f; stroke:none;" d="M106 42L107 43L106 42z"/>
<path style="fill:#646463; stroke:none;" d="M107 42L108 43L107 42M200 42L200 43L206 43L200 42z"/>
<path style="fill:#899096; stroke:none;" d="M208 42L209 43L208 42M220 42L221 43L220 42z"/>
<path style="fill:#8e756f; stroke:none;" d="M223 42L224 43L223 42z"/>
<path style="fill:#899096; stroke:none;" d="M80 43L81 44L80 43M89 43L90 44L89 43M101 43L102 44L101 43M104 43L106 45L104 43z"/>
<path style="fill:#646463; stroke:none;" d="M105.667 43.3333L106.333 43.6667L105.667 43.3333z"/>
<path style="fill:#899096; stroke:none;" d="M160 43L161 44L160 43M204 43L205 44L204 43z"/>
<path style="fill:#8e756f; stroke:none;" d="M205 43L206 44L205 43M222 43L223 44L222 43z"/>
<path style="fill:#899096; stroke:none;" d="M100 44L101 45L100 44z"/>
<path style="fill:#646463; stroke:none;" d="M104 44L105 45L104 44z"/>
<path style="fill:#899096; stroke:none;" d="M152 44L153 45L152 44M158 44L159 45L158 44M200 45L200 46L204 45L200 45M207 44L208 45L207 44z"/>
<path style="fill:#ccbb51; stroke:none;" d="M209 44L210 45L209 44z"/>
<path style="fill:#8e756f; stroke:none;" d="M212 44L213 45L212 44z"/>
<path style="fill:#b1aba8; stroke:none;" d="M225 44L226 45L225 44z"/>
<path style="fill:#8e756f; stroke:none;" d="M101 45L102 46L101 45z"/>
<path style="fill:#899096; stroke:none;" d="M154 45L155 46L154 45M157 45L158 46L157 45z"/>
<path style="fill:#b1aba8; stroke:none;" d="M224 45L223 47L224 45M227.667 45.3333L228.333 45.6667L227.667 45.3333z"/>
<path style="fill:#646463; stroke:none;" d="M299 45L296 46L296 58L300 58L299 45z"/>
<path style="fill:#8e756f; stroke:none;" d="M32.3333 46.6667L32.6667 47.3333L32.3333 46.6667M103 46L104 47L103 46M207.333 46.6667L207.667 47.3333L207.333 46.6667z"/>
<path style="fill:#899096; stroke:none;" d="M211 46L212 47L211 46z"/>
<path style="fill:#8e756f; stroke:none;" d="M213 46L212 49L213 49L213 46M224 46L224 47L228 47L224 46z"/>
<path style="fill:#899096; stroke:none;" d="M81 47L82 48L81 47z"/>
<path style="fill:#b1aba8; stroke:none;" d="M211 47L212 48L211 47z"/>
<path style="fill:#646463; stroke:none;" d="M213 47L213 49L215 49L213 47z"/>
<path style="fill:#8e756f; stroke:none;" d="M222 47L223 48L222 47z"/>
<path style="fill:#646463; stroke:none;" d="M224 47L224 48L229 48L224 47z"/>
<path style="fill:#b1aba8; stroke:none;" d="M230 47L231 48L230 47z"/>
<path style="fill:#8e756f; stroke:none;" d="M40 54L41 54L44 49C40.5456 48.2229 40.2268 51.0602 40 54z"/>
<path style="fill:#899096; stroke:none;" d="M99 48L100 49L99 48z"/>
<path style="fill:#8e756f; stroke:none;" d="M103.667 48.3333L104.333 48.6667L103.667 48.3333z"/>
<path style="fill:#899096; stroke:none;" d="M200 49L200 50L204 49L200 49z"/>
<path style="fill:#8e756f; stroke:none;" d="M209 48L210 49L209 48z"/>
<path style="fill:#b1aba8; stroke:none;" d="M222 48L223 49L222 48z"/>
<path style="fill:#8e756f; stroke:none;" d="M297 48L298 49L297 48M299 48L300 49L299 48z"/>
<path style="fill:#899096; stroke:none;" d="M81 49L82 50L81 49z"/>
<path style="fill:#8e756f; stroke:none;" d="M98 49L99 50L98 49z"/>
<path style="fill:#ccbb51; stroke:none;" d="M110 49L111 50L110 49z"/>
<path style="fill:#8e756f; stroke:none;" d="M206 49L207 50L206 49M214 49L215 50L214 49M223 49L224 50L223 49z"/>
<path style="fill:#b1aba8; stroke:none;" d="M56.6667 50.3333L57.3333 50.6667L56.6667 50.3333z"/>
<path style="fill:#899096; stroke:none;" d="M83 50L84 51L83 50z"/>
<path style="fill:#646463; stroke:none;" d="M84 50L81 52L81 53L84 50z"/>
<path style="fill:#899096; stroke:none;" d="M85 50L86 51L85 50z"/>
<path style="fill:#8e756f; stroke:none;" d="M95 50L96 51L95 50z"/>
<path style="fill:#ccbb51; stroke:none;" d="M105 50L106 51L105 50z"/>
<path style="fill:#899096; stroke:none;" d="M202 50L203 51L202 50z"/>
<path style="fill:#8e756f; stroke:none;" d="M219 50L220 51L219 50M88 51L89 52L88 51z"/>
<path style="fill:#ccbb51; stroke:none;" d="M169 51L170 52L169 51M174 51L175 52L174 51z"/>
<path style="fill:#8e756f; stroke:none;" d="M205 51L206 52L205 51M208 51L209 52L208 51M218 51L219 52L218 51z"/>
<path style="fill:#b1aba8; stroke:none;" d="M220 51L221 52L220 51M222 51L224 53L222 51M61 54L64 52L61 54z"/>
<path style="fill:#899096; stroke:none;" d="M80 52L81 53L80 52z"/>
<path style="fill:#8e756f; stroke:none;" d="M90 52L91 53L90 52z"/>
<path style="fill:#b1aba8; stroke:none;" d="M95 52L96 53L95 52z"/>
<path style="fill:#8e756f; stroke:none;" d="M106 52L107 53L106 52z"/>
<path style="fill:#899096; stroke:none;" d="M151 52L152 53L151 52M155 52L156 53L155 52M160 52L161 53L160 52z"/>
<path style="fill:#646463; stroke:none;" d="M108 95C105.231 88.2032 105.231 84.7968 108 78L109 81L110 81C110.152 74.7145 112.215 71.5676 118 69L117 73L118 73C120.708 67.5706 123.472 63.4387 130 65L130 68C121.303 73.033 127.459 80.8637 135 82C131.049 84.7177 129.124 84.2212 125 82L126 85C121.458 85.4037 120.682 83.2298 121 79L120 79L113 83L113 84L119 83C119.661 88.6024 119.623 92.2406 115 96L115 97C119.571 94.7971 120.839 91.96 121 87C128.943 86.3731 134.923 85.6356 140 79C129.767 81.4951 121.764 71.5196 134 68L134 67L129 61C133.02 60.4733 136.619 60.7251 138 65C140.047 62.9891 138.893 61.8401 137 60L137 59L153 54L155 59C158.038 53.741 164.362 53.0504 170 53L166 58L166 59L173 57C168.169 49.9388 163.245 53.0719 156 53.3897C141.272 54.0355 122.687 60.1738 111.429 70.652C105.107 76.5363 100.72 88.5755 108 95z"/>
<path style="fill:#ccbb51; stroke:none;" d="M171 54L171 55L182 57L179 52L171 54M203 52L204 53L203 52z"/>
<path style="fill:#8e756f; stroke:none;" d="M204 52L205 53L204 52M220 52L221 53L220 52z"/>
<path style="fill:#646463; stroke:none;" d="M0 53L0 56L2 56L2 53L0 53z"/>
<path style="fill:#ccbb51; stroke:none;" d="M89 53L90 54L89 53z"/>
<path style="fill:#899096; stroke:none;" d="M94 53L95 54L94 53z"/>
<path style="fill:#8e756f; stroke:none;" d="M109 53L110 54L109 53z"/>
<path style="fill:#899096; stroke:none;" d="M145 53L146 54L145 53z"/>
<path style="fill:#8e756f; stroke:none;" d="M157 53L158 54L157 53M155 59L141 56L140 59L137 59L148 71L151 70L146 85L157 86L157 87L153 87L157 90C160.685 84.3382 167.063 77.7745 174 77L172 70L171 70L160 74L159 74L160 67L161 67L169 71L169 58L165 58L166 54C161.438 53.3711 156.634 54.3004 155 59z"/>
<path style="fill:#b1aba8; stroke:none;" d="M164 53L164 54L166 56L170 56L164 53z"/>
<path style="fill:#899096; stroke:none;" d="M169 53L170 54L169 53z"/>
<path style="fill:#8e756f; stroke:none;" d="M203 53L204 54L203 53z"/>
<path style="fill:#646463; stroke:none;" d="M206.333 53.6667L206.667 54.3333L206.333 53.6667z"/>
<path style="fill:#8e756f; stroke:none;" d="M207 53L208 54L207 53z"/>
<path style="fill:#899096; stroke:none;" d="M214 53L215 54L214 53z"/>
<path style="fill:#8e756f; stroke:none;" d="M217 53L218 54L217 53M219 53L220 54L219 53M221.667 53.3333L222.333 53.6667L221.667 53.3333M91 54L92 55L91 54z"/>
<path style="fill:#899096; stroke:none;" d="M101 54L102 55L101 54M110 54L111 55L110 54z"/>
<path style="fill:#8e756f; stroke:none;" d="M142 54L143 55L142 54M147 54L148 55L147 54z"/>
<path style="fill:#b1aba8; stroke:none;" d="M148 54L148 55L153 56L148 54z"/>
<path style="fill:#899096; stroke:none;" d="M200 54L200 57L201 57L200 54z"/>
<path style="fill:#b1aba8; stroke:none;" d="M204 54L205 55L204 54M217 54L218 55L217 54z"/>
<path style="fill:#646463; stroke:none;" d="M218 54L220 60L221 60L218 54M222 54L223 57L224 57L224 54L222 54z"/>
<path style="fill:#8e756f; stroke:none;" d="M256 54L256 58L266 57L256 54M103 55L104 56L103 55M143 55L144 56L143 55z"/>
<path style="fill:#b1aba8; stroke:none;" d="M144 55L144 57L146 55L144 55z"/>
<path style="fill:#ccbb51; stroke:none;" d="M146 55L146 56L150 56L146 55M165 58L169 55L165 58z"/>
<path style="fill:#b1aba8; stroke:none;" d="M171 55L172 56L171 55z"/>
<path style="fill:#899096; stroke:none;" d="M172 55L173 56L172 55z"/>
<path style="fill:#8e756f; stroke:none;" d="M173 55L173 57L175 57L173 55z"/>
<path style="fill:#646463; stroke:none;" d="M174 55L174 56C178.896 56.7581 181.242 59.1045 182 64C186.902 63.8338 199.3 70.0742 190 73L190 74C201.088 72.2305 191.087 60.9854 183 63C182.356 57.269 179.623 55.3087 174 55z"/>
<path style="fill:#b1aba8; stroke:none;" d="M179 55L180 56L179 55M205 55L206 56L205 55z"/>
<path style="fill:#8e756f; stroke:none;" d="M212 55L213 56L212 55z"/>
<path style="fill:#b1aba8; stroke:none;" d="M214 55L216 57L216 55L214 55z"/>
<path style="fill:#8e756f; stroke:none;" d="M219 55L220 56L219 55M222 55L223 56L222 55M89 56L90 57L89 56z"/>
<path style="fill:#646463; stroke:none;" d="M90 56L87 61L90 56z"/>
<path style="fill:#899096; stroke:none;" d="M99 56L100 57L99 56z"/>
<path style="fill:#b1aba8; stroke:none;" d="M102 56L103 57L102 56z"/>
<path style="fill:#8e756f; stroke:none;" d="M106 56L107 57L106 56z"/>
<path style="fill:#899096; stroke:none;" d="M110 56L111 57L110 56z"/>
<path style="fill:#ccbb51; stroke:none;" d="M142.667 56.3333L143.333 56.6667L142.667 56.3333M169 69C173.584 71.4598 174.411 75.0873 175 80L171 83L174 84L174 85C160.706 80.7622 158.098 91.4847 156 102L164 102L164 103L161 104L161 105L174 103C172.469 104.58 169.402 106.233 168.711 108.389C167.244 112.971 173.357 116.219 177 116.577C182.462 117.114 186.791 113.622 189 109L190 109L189 113L193 107L190 109C193.782 102.284 199.547 101.151 198 92L195 93C199.565 87.3006 199.323 83.7165 198 77L190 73C199.209 70.1294 188.055 63.2651 182 65C181.681 59.1743 175.313 51.8128 169.773 58.5887C167.831 60.9641 168.992 66.1166 169 69z"/>
<path style="fill:#8e756f; stroke:none;" d="M206 56L207 57L206 56z"/>
<path style="fill:#899096; stroke:none;" d="M210 56L211 57L210 56z"/>
<path style="fill:#ccbb51; stroke:none;" d="M211 56L210 58L211 56z"/>
<path style="fill:#b1aba8; stroke:none;" d="M211 58L214 57L211 58M221 56L223 58L221 56z"/>
<path style="fill:#899096; stroke:none;" d="M222 56L223 57L222 56M90 57L91 58L90 57z"/>
<path style="fill:#ccbb51; stroke:none;" d="M98 57L98 58L101 61L102 61L98 57z"/>
<path style="fill:#899096; stroke:none;" d="M101 57L102 58L101 57z"/>
<path style="fill:#b1aba8; stroke:none;" d="M105 57L106 58L105 57z"/>
<path style="fill:#899096; stroke:none;" d="M108 57L109 58L108 57z"/>
<path style="fill:#b1aba8; stroke:none;" d="M139 57L140 58L139 57z"/>
<path style="fill:#ccbb51; stroke:none;" d="M140 57L141 58L140 57z"/>
<path style="fill:#8e756f; stroke:none;" d="M212 57L213 58L212 57z"/>
<path style="fill:#b1aba8; stroke:none;" d="M217.333 57.6667L217.667 58.3333L217.333 57.6667z"/>
<path style="fill:#646463; stroke:none;" d="M92 58L92 64L93 64L94 58L92 58z"/>
<path style="fill:#899096; stroke:none;" d="M98 58L99 59L98 58M104 58L105 59L104 58z"/>
<path style="fill:#8e756f; stroke:none;" d="M107 58L108 59L107 58z"/>
<path style="fill:#899096; stroke:none;" d="M132.667 58.3333L133.333 58.6667L132.667 58.3333z"/>
<path style="fill:#b1aba8; stroke:none;" d="M138 58L139 59L138 58z"/>
<path style="fill:#646463; stroke:none;" d="M140 58L141 59L140 58z"/>
<path style="fill:#899096; stroke:none;" d="M182 58L183 59L182 58M200.667 58.3333L201.333 58.6667L200.667 58.3333M205 58L206 59L205 58z"/>
<path style="fill:#b1aba8; stroke:none;" d="M210 58L211 59L210 58z"/>
<path style="fill:#8e756f; stroke:none;" d="M219 58L220 59L219 58M221.333 58.6667L221.667 59.3333L221.333 58.6667z"/>
<path style="fill:#b1aba8; stroke:none;" d="M223 58L224 59L223 58z"/>
<path style="fill:#899096; stroke:none;" d="M87 59L88 60L87 59M90 59L91 60L90 59z"/>
<path style="fill:#8e756f; stroke:none;" d="M93 59L94 60L93 59z"/>
<path style="fill:#899096; stroke:none;" d="M103 59L104 60L103 59M110 59L111 60L110 59M129 59L130 60L129 59z"/>
<path style="fill:#8e756f; stroke:none;" d="M181 59L182 60L181 59M202 59L203 60L202 59z"/>
<path style="fill:#899096; stroke:none;" d="M97 60L98 61L97 60M109 60L110 61L109 60M128 60L129 61L128 60z"/>
<path style="fill:#b1aba8; stroke:none;" d="M129 62L129 63L134 67C122.999 72.7378 130.337 85.015 139 78C136.374 87.3619 128.069 83.4868 122.588 88.0934C119.229 90.9162 119.446 94.8065 115 97L115 96C119.78 93.0676 118.637 88.9933 119 84L112 84L112 83L122 79C120.443 82.7874 121.498 86.6407 126 84L123 83L123 82L126 81L128 85L135 83L135 82C125.141 80.9013 124.428 73.8103 130 67C124.237 60.9772 120.691 68.97 117 73L118 69C111.324 71.3542 110.504 74.4013 110 81L107 79C105.381 84.7712 104.548 88.8185 108 94L109 94L114 88L114 93C106.687 97.2878 112.915 102.802 119 103L126 89C142.206 90.7834 142.667 88.0107 143 73L132 73C135.88 72.6788 139.734 73.3263 141 69L148 71L141 63L138 65C135.809 60.8279 133.222 59.9766 129 62z"/>
<path style="fill:#899096; stroke:none;" d="M134 60L135 61L134 60M200 63L201 63L204 61C201.588 59.6452 200.568 60.3511 200 63z"/>
<path style="fill:#8e756f; stroke:none;" d="M206 60L207 61L206 60z"/>
<path style="fill:#b1aba8; stroke:none;" d="M209 60L210 61L209 60M218 60L217 64L218 64L218 61L221 62L218 60M222 60L223 61L222 60z"/>
<path style="fill:#8e756f; stroke:none;" d="M279 60L277 64C279.649 63.4324 280.355 62.4122 279 60M39 61L39 64L40 64L39 61z"/>
<path style="fill:#899096; stroke:none;" d="M87 61L88 62L87 61M93 61L94 62L93 61z"/>
<path style="fill:#ccbb51; stroke:none;" d="M100 61L101 62L100 61z"/>
<path style="fill:#899096; stroke:none;" d="M129 61L130 62L129 61z"/>
<path style="fill:#8e756f; stroke:none;" d="M136 61L137 62L136 61z"/>
<path style="fill:#646463; stroke:none;" d="M146 61L147 66L160 67L146 61M173 61L172 69L173 69L176 65L173 61z"/>
<path style="fill:#ccbb51; stroke:none;" d="M184 61L185 62L184 61z"/>
<path style="fill:#b1aba8; stroke:none;" d="M208 61L209 62L208 61z"/>
<path style="fill:#8e756f; stroke:none;" d="M210 61L211 62L210 61z"/>
<path style="fill:#b1aba8; stroke:none;" d="M211 61L212 62L211 61z"/>
<path style="fill:#646463; stroke:none;" d="M0.333333 62.6667L0.666667 63.3333L0.333333 62.6667z"/>
<path style="fill:#899096; stroke:none;" d="M90 62L91 63L90 62M124 62L125 63L124 62z"/>
<path style="fill:#8e756f; stroke:none;" d="M125 62L126 63L125 62z"/>
<path style="fill:#899096; stroke:none;" d="M137 62L138 63L137 62z"/>
<path style="fill:#8e756f; stroke:none;" d="M183 62L184 63L183 62z"/>
<path style="fill:#899096; stroke:none;" d="M188 62L189 63L188 62z"/>
<path style="fill:#b1aba8; stroke:none;" d="M207 62L208 63L207 62M209 62L210 63L209 62M214.667 62.3333L215.333 62.6667L214.667 62.3333z"/>
<path style="fill:#8e756f; stroke:none;" d="M247 62L240 64L240 68L248 66L247 62z"/>
<path style="fill:#899096; stroke:none;" d="M15 67L16 67L24 65C20.2595 63.2062 16.4916 62.5497 15 67z"/>
<path style="fill:#b1aba8; stroke:none;" d="M63 63L64 64L63 63z"/>
<path style="fill:#899096; stroke:none;" d="M126 63L127 64L126 63M132 63L133 64L132 63M138 63L139 64L138 63z"/>
<path style="fill:#8e756f; stroke:none;" d="M186 63L187 64L186 63z"/>
<path style="fill:#899096; stroke:none;" d="M201 63L202 64L201 63z"/>
<path style="fill:#b1aba8; stroke:none;" d="M208 63L209 64L208 63z"/>
<path style="fill:#646463; stroke:none;" d="M12 64L12 67L14 64L12 64z"/>
<path style="fill:#8e756f; stroke:none;" d="M43.6667 64.3333L44.3333 64.6667L43.6667 64.3333z"/>
<path style="fill:#b1aba8; stroke:none;" d="M60 64L61 65L60 64z"/>
<path style="fill:#899096; stroke:none;" d="M130 64L131 65L130 64M142 64L143 65L142 64z"/>
<path style="fill:#8e756f; stroke:none;" d="M173 64L174 65L173 64M182 64L183 65L182 64z"/>
<path style="fill:#b1aba8; stroke:none;" d="M189 64L190 65L189 64z"/>
<path style="fill:#899096; stroke:none;" d="M197 64L198 65L197 64z"/>
<path style="fill:#8e756f; stroke:none;" d="M263 64L264 65L263 64z"/>
<path style="fill:#899096; stroke:none;" d="M122 65L123 66L122 65M128.667 65.3333L129.333 65.6667L128.667 65.3333M173 65L174 66L173 65M175 65L176 66L175 65z"/>
<path style="fill:#8e756f; stroke:none;" d="M176 65L177 66L176 65z"/>
<path style="fill:#899096; stroke:none;" d="M195 65L196 66L195 65M121 66L122 67L121 66M131.667 66.3333L132.333 66.6667L131.667 66.3333M134 66L135 67L134 66M141 66L140 68L141 66M116 67L117 68L116 67M120 67L121 68L120 67M127 67L128 68L127 67M129 67L130 68L129 67M146 67L147 68L146 67z"/>
<path style="fill:#646463; stroke:none;" d="M160 67L159 74L160 74L172 69L168 69L169 71L168 71L160 67z"/>
<path style="fill:#899096; stroke:none;" d="M196.667 67.3333L197.333 67.6667L196.667 67.3333M114 68L115 69L114 68M130 68L131 69L130 68M134 68L134 71L135 71L134 68M195 68L196 69L195 68M112 69L113 70L112 69M116 69L117 70L116 69M119 69L120 70L119 69M123 69L125 71L123 69M132 69L133 70L132 69M141 69L141 72L142 72L141 69z"/>
<path style="fill:#646463; stroke:none;" d="M142 69C139.865 72.6548 137.051 72.902 133 73L133 74L144 73C142.646 78.6868 141.866 85.7894 149 87L149 88C141.629 91.1404 133.788 86.8832 127.005 90.2176C122.196 92.5812 120.833 102.325 115.954 102.875C110.33 103.508 108.508 94.4024 114 93L113 88L112 88C109.194 95.9042 107.75 106.772 120 104C122.271 110.66 126.074 111.086 131.83 113.587C134.865 114.906 136.672 117.849 140.004 118.682C148.486 120.802 159.387 115.576 168 115.502C177.28 115.422 185.585 121.949 190 109L189 109C181.069 122.092 171.804 110.784 161 116L163 113L166 107L167 111L168 111L167 107L174 104L174 103L161 105L161 104L164 103L164 102C158.197 102.824 154.833 101.054 150 98L150 97L152 94L147 97C149.017 98.7418 153.843 101.99 153.797 104.985C153.701 111.217 141.751 110.978 138 110L138 101L137 101C137.528 116.041 118.742 111.541 121.696 100C123.64 92.4042 135.345 86.7838 141.397 93.5725C144.135 96.6427 144.333 103.138 144 107L150 103C139.026 96.1802 151.107 84.0552 157 97L158 97C156.55 86.3097 165.14 82.6814 174 85L174 84L167 82C169.624 79.2144 171.325 79.0634 175 80L175 76C167.569 77.9504 160.25 82.7843 157 90L153 87L157 87L157 86C145.655 85.9912 139.831 78.2742 151 71L151 70L144 73L142 69z"/>
<path style="fill:#899096; stroke:none;" d="M144 69L145 70L144 69z"/>
<path style="fill:#b1aba8; stroke:none;" d="M169.667 69.3333L170.333 69.6667L169.667 69.3333z"/>
<path style="fill:#899096; stroke:none;" d="M194 69L195 70L194 69z"/>
<path style="fill:#8e756f; stroke:none;" d="M256 69C254.014 72.0546 251.865 72.134 249 70L248 70C244.548 72.6009 241.783 71.4488 238 70L248 87L260 81L260 80L256 80C257.054 75.7035 260.397 72.2077 256 69z"/>
<path style="fill:#646463; stroke:none;" d="M0.333333 70.6667L0.666667 71.3333L0.333333 70.6667z"/>
<path style="fill:#899096; stroke:none;" d="M13 70L12 72L14 72L13 70z"/>
<path style="fill:#646463; stroke:none;" d="M40.3333 70.6667L40.6667 71.3333L40.3333 70.6667z"/>
<path style="fill:#899096; stroke:none;" d="M110 70L111 71L110 70M117 70L118 71L117 70M128 70L129 71L128 70z"/>
<path style="fill:#8e756f; stroke:none;" d="M175 70L175 71L178 71L178 70L175 70z"/>
<path style="fill:#646463; stroke:none;" d="M176 70L177 71L176 70z"/>
<path style="fill:#8e756f; stroke:none;" d="M184 70L185 71L184 70z"/>
<path style="fill:#646463; stroke:none;" d="M185.667 70.3333L186.333 70.6667L185.667 70.3333z"/>
<path style="fill:#899096; stroke:none;" d="M197.667 70.3333L198.333 70.6667L197.667 70.3333M143 71L144 72L143 71z"/>
<path style="fill:#646463; stroke:none;" d="M175 71L176 72L175 71M177 71L177 72L183 79L184 79L185 79L185 71L184 71L183 74L177 71z"/>
<path style="fill:#8e756f; stroke:none;" d="M194 71L195 72L194 71z"/>
<path style="fill:#899096; stroke:none;" d="M109 72L110 73L109 72M118 72L119 73L118 72M133 72L134 73L133 72M138.667 72.3333L139.333 72.6667L138.667 72.3333M144.667 72.3333L145.333 72.6667L144.667 72.3333z"/>
<path style="fill:#b1aba8; stroke:none;" d="M148 72C144.386 75.8621 144.096 78.8993 145 84L146 84C148.059 79.9653 150.308 76.3229 148 72z"/>
<path style="fill:#8e756f; stroke:none;" d="M179 72L180 73L179 72M184 72L185 73L184 72M193 72L194 73L193 72z"/>
<path style="fill:#899096; stroke:none;" d="M197 72L198 73L197 72M203 72L206 75L203 72z"/>
<path style="fill:#b1aba8; stroke:none;" d="M207 72L208 73L207 72z"/>
<path style="fill:#8e756f; stroke:none;" d="M269 72L272 75L269 72z"/>
<path style="fill:#646463; stroke:none;" d="M0 73C0 76.7675 -1.41281 82.0544 3 83L0 88L4 88L0 95L12 99L13 98L15 80L10 80L9 75L8 75L8 80L0 73z"/>
<path style="fill:#899096; stroke:none;" d="M125 73L126 74L125 73M132 73L133 74L132 73M140 73L141 74L140 73M143.333 73.6667L143.667 74.3333L143.333 73.6667M146 73L147 74L146 73M149 73L150 74L149 73M180 73L181 74L180 73z"/>
<path style="fill:#b1aba8; stroke:none;" d="M182 73L183 74L182 73z"/>
<path style="fill:#ccbb51; stroke:none;" d="M194.667 73.3333L195.333 73.6667L194.667 73.3333z"/>
<path style="fill:#899096; stroke:none;" d="M199 73L200 74L199 73M133.667 74.3333L134.333 74.6667L133.667 74.3333M136 74L137 75L136 74z"/>
<path style="fill:#646463; stroke:none;" d="M151 75L149 81L159 74L151 75z"/>
<path style="fill:#8e756f; stroke:none;" d="M181 74L182 75L181 74M191.667 74.3333L192.333 74.6667L191.667 74.3333z"/>
<path style="fill:#899096; stroke:none;" d="M193 74L194 75L193 74z"/>
<path style="fill:#b1aba8; stroke:none;" d="M194 74L195 75L194 74z"/>
<path style="fill:#8e756f; stroke:none;" d="M195 74L196 75L195 74z"/>
<path style="fill:#899096; stroke:none;" d="M196 74L196 75L200 76L200 75L196 74M200 74L201 75L200 74M117.667 75.3333L118.333 75.6667L117.667 75.3333M125.333 75.6667L125.667 76.3333L125.333 75.6667M131 75L132 76L131 75z"/>
<path style="fill:#8e756f; stroke:none;" d="M183 75L184 76L183 75z"/>
<path style="fill:#646463; stroke:none;" d="M192 75L192 76C203.144 77.2524 199.197 86.4139 195 93C203.57 88.0125 202.967 75.3562 192 75z"/>
<path style="fill:#899096; stroke:none;" d="M144 76L145 77L144 76z"/>
<path style="fill:#b1aba8; stroke:none;" d="M196 76L197 77L196 76z"/>
<path style="fill:#8e756f; stroke:none;" d="M199 76L200 77L199 76M239 76L238 80L239 76z"/>
<path style="fill:#899096; stroke:none;" d="M107 77L108 78L107 77M127 77L128 78L127 77M146 77L147 78L146 77M183 77L184 78L183 77M198 77L197 79L198 77z"/>
<path style="fill:#8e756f; stroke:none;" d="M40 78L40 80L42 80L40 78z"/>
<path style="fill:#899096; stroke:none;" d="M108 78L108 81L109 81L108 78M110 78L111 79L110 78M128 78L129 79L128 78M138 78L139 79L138 78M142.333 78.6667L142.667 79.3333L142.333 78.6667z"/>
<path style="fill:#8e756f; stroke:none;" d="M167 82L173 79L167 82z"/>
<path style="fill:#b1aba8; stroke:none;" d="M198.333 78.6667L198.667 79.3333L198.333 78.6667z"/>
<path style="fill:#899096; stroke:none;" d="M23 81L26 80L23 81M105 79L106 80L105 79M121 79L122 80L121 79M129 79L130 80L129 79M145 79L146 80L145 79z"/>
<path style="fill:#8e756f; stroke:none;" d="M199 79L200 80L199 79z"/>
<path style="fill:#899096; stroke:none;" d="M201 79L202 80L201 79M203 79L204 80L203 79z"/>
<path style="fill:#b1aba8; stroke:none;" d="M206 79L207 80L206 79z"/>
<path style="fill:#646463; stroke:none;" d="M16 80L17 81L16 80z"/>
<path style="fill:#899096; stroke:none;" d="M119 80L120 81L119 80M128 80L129 81L128 80M133.667 80.3333L134.333 80.6667L133.667 80.3333z"/>
<path style="fill:#646463; stroke:none;" d="M171 80L172 81L171 80z"/>
<path style="fill:#899096; stroke:none;" d="M199 80L200 81L199 80M202 80L203 81L202 80M104 81L105 82L104 81M120 81L121 82L120 81M125 81L126 82L125 81M130.667 81.3333L131.333 81.6667L130.667 81.3333M144.333 81.6667L144.667 82.3333L144.333 81.6667z"/>
<path style="fill:#b1aba8; stroke:none;" d="M171 81L172 82L171 81z"/>
<path style="fill:#646463; stroke:none;" d="M189 102L189 101C177.561 97.1087 179.725 89.2766 185 81C174.327 86.5838 178.167 99.9038 189 102z"/>
<path style="fill:#899096; stroke:none;" d="M113 82L113 83L116 83L113 82M123.667 82.3333L124.333 82.6667L123.667 82.3333M126 82L127 83L126 82M129 82L130 83L129 82M136 82L137 83L136 82M146.333 82.6667L146.667 83.3333L146.333 82.6667z"/>
<path style="fill:#8e756f; stroke:none;" d="M0 86L3 83L0 86z"/>
<path style="fill:#899096; stroke:none;" d="M105.333 83.6667L105.667 84.3333L105.333 83.6667M107 83L108 84L107 83M112 83L113 84L112 83M118 83L119 84L118 83M125 83L126 84L125 83z"/>
<path style="fill:#8e756f; stroke:none;" d="M163 84L163 85L169 84L163 84M172 83L173 84L172 83M10 84L12 88L10 84z"/>
<path style="fill:#899096; stroke:none;" d="M130 84L131 85L130 84M132 84L133 85L132 84M136 84L137 85L136 84M140.333 84.6667L140.667 85.3333L140.333 84.6667z"/>
<path style="fill:#b1aba8; stroke:none;" d="M180 84L181 85L180 84z"/>
<path style="fill:#8e756f; stroke:none;" d="M184 84L185 85L184 84z"/>
<path style="fill:#899096; stroke:none;" d="M185 84L184 86L185 84z"/>
<path style="fill:#646463; stroke:none;" d="M185 85L185 86L190 87L186 93L193 84L185 85z"/>
<path style="fill:#899096; stroke:none;" d="M199 84L200 85L199 84M24 85L21 87L21 88L27 88L24 85M103 85L103 88L104 88L103 85M116 85L117 86L116 85M121 85L122 86L121 85M124 85L125 86L124 85M133 85L134 86L133 85M144 85L145 86L144 85M181 85L182 86L181 85z"/>
<path style="fill:#8e756f; stroke:none;" d="M199 85L200 86L199 85M260 85L260 86L264 87L260 85z"/>
<path style="fill:#899096; stroke:none;" d="M106 86L107 87L106 86M118 86L119 91L120 91L118 86M125 86L126 87L125 86M128 86L128 87L132 87L128 86M136 86L137 87L136 86z"/>
<path style="fill:#8e756f; stroke:none;" d="M144 86L142 91L149 88L144 86M160 86L161 87L160 86z"/>
<path style="fill:#899096; stroke:none;" d="M200 86L201 87L200 86z"/>
<path style="fill:#8e756f; stroke:none;" d="M5 87L5 88L8 88L5 87z"/>
<path style="fill:#899096; stroke:none;" d="M121.667 87.3333L122.333 87.6667L121.667 87.3333M143 87L144 88L143 87z"/>
<path style="fill:#8e756f; stroke:none;" d="M179 87L180 88L179 87M189 87L190 88L189 87z"/>
<path style="fill:#899096; stroke:none;" d="M201 87L202 88L201 87z"/>
<path style="fill:#8e756f; stroke:none;" d="M0 88L0 94L4 88L0 88z"/>
<path style="fill:#899096; stroke:none;" d="M105 88L106 89L105 88M113 88L114 89L113 88M124 88L125 89L124 88M142 88L143 89L142 88z"/>
<path style="fill:#8e756f; stroke:none;" d="M159 88L160 89L159 88M180 88L181 89L180 88M198 88L199 89L198 88z"/>
<path style="fill:#899096; stroke:none;" d="M206 88L204 91L206 88z"/>
<path style="fill:#8e756f; stroke:none;" d="M254 88L255 92L256 92L256 88L254 88z"/>
<path style="fill:#899096; stroke:none;" d="M111.333 89.6667L111.667 90.3333L111.333 89.6667M115 89L116 90L115 89M126 89L127 90L126 89M128 89L129 90L128 89M135.667 89.3333L136.333 89.6667L135.667 89.3333z"/>
<path style="fill:#646463; stroke:none;" d="M165 89C166.659 94.3302 166.731 97.0284 164 102L169 92L165 89z"/>
<path style="fill:#899096; stroke:none;" d="M199 89L200 90L199 89M201 89L202 90L201 89z"/>
<path style="fill:#b1aba8; stroke:none;" d="M61 92L64 90L61 92z"/>
<path style="fill:#899096; stroke:none;" d="M132 90L133 91L132 90z"/>
<path style="fill:#8e756f; stroke:none;" d="M150 103L146 110C155.709 108.945 154.526 104.446 150 98L148 99L147 96L152 94L150 97L150 98L156 102C156.463 100.226 156.835 98.6842 156.601 96.8264C154.769 82.2477 135.566 96.8927 150 103z"/>
<path style="fill:#899096; stroke:none;" d="M178.333 90.6667L178.667 91.3333L178.333 90.6667M189 90L190 91L189 90z"/>
<path style="fill:#8e756f; stroke:none;" d="M248 90L244 93L247 104L248 104L249 101L251 109L252 103L254 103L255 110L256 110L256 107L272 108L274 96L264 96L264 92L257 98L253 99L248 90z"/>
<path style="fill:#899096; stroke:none;" d="M104 91L105 92L104 91M113 91L114 92L113 91M115 91L116 92L115 91M127 91L128 92L127 91z"/>
<path style="fill:#b1aba8; stroke:none;" d="M137 101L138 101C139.239 107.234 138.481 110.755 146 111C144.822 105.878 144.12 95.4304 139.49 92.179C132.341 87.1588 121.396 93.6411 121.265 101.83C121.074 113.726 136.731 113.543 137 101z"/>
<path style="fill:#899096; stroke:none;" d="M139 91L140 92L139 91z"/>
<path style="fill:#646463; stroke:none;" d="M200 91C200.847 101.517 192.718 101.037 190 109L191 109C195.919 103.922 205.683 99.3663 200 91z"/>
<path style="fill:#899096; stroke:none;" d="M112 92L113 93L112 92M138 92L139 93L138 92z"/>
<path style="fill:#8e756f; stroke:none;" d="M157 92L157 96L158 96L157 92M187 92L188 93L187 92z"/>
<path style="fill:#899096; stroke:none;" d="M196 92L197 93L196 92M199 92L200 93L199 92z"/>
<path style="fill:#8e756f; stroke:none;" d="M201 92L202 93L201 92z"/>
<path style="fill:#899096; stroke:none;" d="M107 93L108 94L107 93M109 93L110 94L109 93M111 93L112 94L111 93M116 93L114 96L116 93M131 94L131 95L134 95L131 94z"/>
<path style="fill:#8e756f; stroke:none;" d="M141 93L142 97L143 97L141 93M179 93L180 94L179 93z"/>
<path style="fill:#646463; stroke:none;" d="M183 93L183 94L186 94L183 93z"/>
<path style="fill:#b1aba8; stroke:none;" d="M199 93L198 101L199 101L199 93z"/>
<path style="fill:#899096; stroke:none;" d="M204.667 93.3333L205.333 93.6667L204.667 93.3333M106 94L107 95L106 94M108 94L109 95L108 94M119 94L120 95L119 94z"/>
<path style="fill:#646463; stroke:none;" d="M132 94C127.688 99.5835 124.274 104.528 132 109L128.912 102L132 94z"/>
<path style="fill:#899096; stroke:none;" d="M141 94L142 95L141 94M207 94L208 95L207 94M288 95L288 96L292 96L288 95z"/>
<path style="fill:#646463; stroke:none;" d="M295.333 94.6667L295.667 95.3333L295.333 94.6667z"/>
<path style="fill:#8e756f; stroke:none;" d="M0 95L0 96L4 97L4 96L0 95z"/>
<path style="fill:#899096; stroke:none;" d="M110 95L111 96L110 95M116 95L117 96L116 95M118 95L119 96L118 95M200 95L201 96L200 95M0.666667 96.3333L1.33333 96.6667L0.666667 96.3333z"/>
<path style="fill:#8e756f; stroke:none;" d="M6 96L6 97L10 97L6 96z"/>
<path style="fill:#646463; stroke:none;" d="M15 96L14 97L17 99L15 96z"/>
<path style="fill:#899096; stroke:none;" d="M111 96L112 97L111 96M117 96L118 97L117 96M126 96L127 97L126 96M130 96L131 97L130 96M133 96L134 97L133 96M138 96L139 97L138 96z"/>
<path style="fill:#8e756f; stroke:none;" d="M200 96L201 97L200 96z"/>
<path style="fill:#899096; stroke:none;" d="M262 96L264 98L264 96L262 96z"/>
<path style="fill:#ccbb51; stroke:none;" d="M0 97L2 99L0 117L17 118C19.6498 121.671 22.9064 120.757 27 120L26 123L62 128L62 127L59 127L59 126L80 130L86 137L96 136L99 132L99 131L95 130L95 134L94 134L92 127L80 128L80 126L96 123L96 122L41 110.091L0 97z"/>
<path style="fill:#b1aba8; stroke:none;" d="M2.66667 97.3333L3.33333 97.6667L2.66667 97.3333z"/>
<path style="fill:#899096; stroke:none;" d="M4 97L5 98L4 97z"/>
<path style="fill:#8e756f; stroke:none;" d="M5 97L6 98L5 97z"/>
<path style="fill:#899096; stroke:none;" d="M108 97L109 98L108 97M120 97L121 98L120 97M131 97L133 99L133 97L131 97M142 97L143 98L142 97z"/>
<path style="fill:#b1aba8; stroke:none;" d="M0 98L0 100L2 100L0 98M5 98L5 99L8 99L5 98z"/>
<path style="fill:#8e756f; stroke:none;" d="M8.66667 98.3333L9.33333 98.6667L8.66667 98.3333z"/>
<path style="fill:#899096; stroke:none;" d="M20 98L20 99L23 99L20 98z"/>
<path style="fill:#b1aba8; stroke:none;" d="M148 98L149 99L148 98z"/>
<path style="fill:#8e756f; stroke:none;" d="M166 98L167 99L166 98z"/>
<path style="fill:#899096; stroke:none;" d="M201 98L202 99L201 98M203 98L204 99L203 98M259 98L259 101L261 101L261 98L259 98z"/>
<path style="fill:#b1aba8; stroke:none;" d="M9 99L10 100L9 99z"/>
<path style="fill:#899096; stroke:none;" d="M10 99L11 100L10 99z"/>
<path style="fill:#646463; stroke:none;" d="M12.6667 99.3333L13.3333 99.6667L12.6667 99.3333z"/>
<path style="fill:#899096; stroke:none;" d="M29 99L28 100L28 104L32 104L31 99L29 99M110 99L111 100L110 99M136 99L137 100L136 99z"/>
<path style="fill:#8e756f; stroke:none;" d="M182 99L183 100L182 99z"/>
<path style="fill:#b1aba8; stroke:none;" d="M184 99L185 100L184 99z"/>
<path style="fill:#899096; stroke:none;" d="M206 99L205 101L206 99z"/>
<path style="fill:#b1aba8; stroke:none;" d="M224 99L225 100L224 99z"/>
<path style="fill:#8e756f; stroke:none;" d="M232.667 99.3333L233.333 99.6667L232.667 99.3333z"/>
<path style="fill:#899096; stroke:none;" d="M280 99L280 104L281 104L280 99z"/>
<path style="fill:#b1aba8; stroke:none;" d="M12.6667 100.333L13.3333 100.667L12.6667 100.333z"/>
<path style="fill:#646463; stroke:none;" d="M15 100L15 101L18 101L15 100z"/>
<path style="fill:#899096; stroke:none;" d="M109 100L110 101L109 100M119 100L120 101L119 100M125 100L126 101L125 100M128 100L129 101L128 100M133 100L134 101L133 100M143 100L144 101L143 100z"/>
<path style="fill:#b1aba8; stroke:none;" d="M186 100L187 101L186 100M10 101L11 102L10 101M15 101L16 102L15 101z"/>
<path style="fill:#899096; stroke:none;" d="M16 101L17 102L16 101z"/>
<path style="fill:#646463; stroke:none;" d="M19 101L22 103L19 101z"/>
<path style="fill:#899096; stroke:none;" d="M126 101L127 102L126 101z"/>
<path style="fill:#646463; stroke:none;" d="M174.333 101.667L174.667 102.333L174.333 101.667z"/>
<path style="fill:#8e756f; stroke:none;" d="M185 101L186 102L185 101M189 101L188 103L190 103L189 101M198 101L199 102L198 101z"/>
<path style="fill:#899096; stroke:none;" d="M200 101L201 102L200 101z"/>
<path style="fill:#b1aba8; stroke:none;" d="M18 102L19 103L18 102z"/>
<path style="fill:#899096; stroke:none;" d="M110 102L111 103L110 102M112 102L113 103L112 102M144.333 102.667L144.667 103.333L144.333 102.667M161 102L162 103L161 102M199 102L200 103L199 102z"/>
<path style="fill:#b1aba8; stroke:none;" d="M16 103L17 104L16 103M21 103L22 104L21 103z"/>
<path style="fill:#646463; stroke:none;" d="M23 103L24 104L23 103z"/>
<path style="fill:#b1aba8; stroke:none;" d="M55 105L58 104L55 105z"/>
<path style="fill:#899096; stroke:none;" d="M80.6667 103.333L81.3333 103.667L80.6667 103.333M111 103L112 104L111 103M115.667 103.333L116.333 103.667L115.667 103.333M121 103L122 104L121 103M126 103L127 104L126 103M129 103L130 104L129 103M137.333 103.667L137.667 104.333L137.333 103.667M142 103L143 104L142 103M162 103L163 104L162 103M195 103L196 104L195 103M198 103L199 104L198 103M200.667 103.333L201.333 103.667L200.667 103.333M206 103L204 104L204 105L206 103M256 103L257 104L256 103M263 103L264 104L263 103M24.6667 104.333L25.3333 104.667L24.6667 104.333M118 104L119 105L118 104M128 104L129 105L128 104M131 104L132 105L131 104z"/>
<path style="fill:#8e756f; stroke:none;" d="M157 104C152.812 109.808 151.56 114.644 160 116L159 104L157 104M173 104L174 105L173 104M196 104L197 105L196 104z"/>
<path style="fill:#899096; stroke:none;" d="M202.333 104.667L202.667 105.333L202.333 104.667z"/>
<path style="fill:#b1aba8; stroke:none;" d="M26 105L27 106L26 105z"/>
<path style="fill:#899096; stroke:none;" d="M27 105L28 106L27 105M127 105L128 106L127 105M129 105L130 106L129 105z"/>
<path style="fill:#b1aba8; stroke:none;" d="M159 105L160 106L159 105z"/>
<path style="fill:#8e756f; stroke:none;" d="M162 105L163 106L162 105M171 105L172 106L171 105z"/>
<path style="fill:#899096; stroke:none;" d="M197 105L198 106L197 105z"/>
<path style="fill:#b1aba8; stroke:none;" d="M24.6667 106.333L25.3333 106.667L24.6667 106.333M29.6667 106.333L30.3333 106.667L29.6667 106.333z"/>
<path style="fill:#899096; stroke:none;" d="M31 106L32 107L31 106M124 106L126 108L124 106M134 106L135 107L134 106M169 106L170 107L169 106z"/>
<path style="fill:#8e756f; stroke:none;" d="M181 106L182 107L181 106z"/>
<path style="fill:#899096; stroke:none;" d="M195 106L196 107L195 106M198 106L199 107L198 106M200 106L201 107L200 106z"/>
<path style="fill:#b1aba8; stroke:none;" d="M32.6667 107.333L33.3333 107.667L32.6667 107.333z"/>
<path style="fill:#899096; stroke:none;" d="M34 107L35 108L34 107M133 107L134 108L133 107M136 107L137 108L136 107M143 107L144 108L143 107M145.333 107.667L145.667 108.333L145.333 107.667z"/>
<path style="fill:#8e756f; stroke:none;" d="M163 107L163 113L161 116L169 112L169 111L166 112L165 107L163 107z"/>
<path style="fill:#ccbb51; stroke:none;" d="M165 107L166 111L167 111L165 107z"/>
<path style="fill:#8e756f; stroke:none;" d="M167 107L168 108L167 107M179 107L180 108L179 107z"/>
<path style="fill:#646463; stroke:none;" d="M180 107L181 108L180 107z"/>
<path style="fill:#899096; stroke:none;" d="M181 107L182 108L181 107z"/>
<path style="fill:#b1aba8; stroke:none;" d="M191 107L192 108L191 107z"/>
<path style="fill:#899096; stroke:none;" d="M197 107L198 108L197 107M212 113L218 112C216.953 105.717 213.265 108.311 212 113z"/>
<path style="fill:#b1aba8; stroke:none;" d="M31 108L32 109L31 108M36 108L36 109L45 111L45 110L36 108z"/>
<path style="fill:#899096; stroke:none;" d="M38 108L39 109L38 108M123 108L124 109L123 108M130 108L131 109L130 108M132 108L133 109L132 108M139 108L140 109L139 108z"/>
<path style="fill:#646463; stroke:none;" d="M173 108L173 109L178 113L179 113L180 108L178 110L177 110L173 108z"/>
<path style="fill:#899096; stroke:none;" d="M199 108L200 109L199 108M201 108L202 109L201 108z"/>
<path style="fill:#8e756f; stroke:none;" d="M202 108L203 109L202 108z"/>
<path style="fill:#899096; stroke:none;" d="M204 108L205 109L204 108M42.6667 109.333L43.3333 109.667L42.6667 109.333M114 109L115 110L114 109M122 109L123 110L122 109M124 109L125 110L124 109M126 109L127 110L126 109M138 109L139 110L138 109M142 109L143 110L142 109z"/>
<path style="fill:#8e756f; stroke:none;" d="M175 109L176 110L175 109M179 109L180 110L179 109z"/>
<path style="fill:#646463; stroke:none;" d="M201 109L201 115L202 115L203 109L201 109M299 109L296 112C298.348 111.706 299.951 111.507 299 109z"/>
<path style="fill:#899096; stroke:none;" d="M45 110L46 111L45 110M112 110L110 113L112 110M117 110L119 112L117 110z"/>
<path style="fill:#646463; stroke:none;" d="M118 110L124 115L118 110z"/>
<path style="fill:#899096; stroke:none;" d="M123 110L124 111L123 110M134 110L135 111L134 110M137 110L138 111L137 110z"/>
<path style="fill:#ccbb51; stroke:none;" d="M153 110L154 111L153 110z"/>
<path style="fill:#b1aba8; stroke:none;" d="M165 110L166 111L165 110z"/>
<path style="fill:#899096; stroke:none;" d="M176 110L177 111L176 110M195 110L196 111L195 110z"/>
<path style="fill:#b1aba8; stroke:none;" d="M46 111L46 112L50 112L46 111z"/>
<path style="fill:#8e756f; stroke:none;" d="M52 111L53 112L52 111z"/>
<path style="fill:#899096; stroke:none;" d="M114 111L115 112L114 111M116 111L117 112L116 111M124 111L125 112L124 111M129 111L129 112L133 112L129 111M135 111L136 112L135 111z"/>
<path style="fill:#b1aba8; stroke:none;" d="M135 112C138.105 118.405 142.818 117.231 149 117C146.604 112.429 139.77 111.171 135 112z"/>
<path style="fill:#899096; stroke:none;" d="M141 111L141 112L144 112L141 111z"/>
<path style="fill:#8e756f; stroke:none;" d="M147 112L147 114L151 115L151 111L147 112z"/>
<path style="fill:#b1aba8; stroke:none;" d="M166 111L167 112L166 111z"/>
<path style="fill:#899096; stroke:none;" d="M189 111L190 112L189 111M207.333 111.667L207.667 112.333L207.333 111.667z"/>
<path style="fill:#b1aba8; stroke:none;" d="M51 112L51 113L55 113L51 112M66 112L69 114L66 112z"/>
<path style="fill:#899096; stroke:none;" d="M80 112L81 113L80 112M126 112L127 113L126 112M140 112L141 113L140 112M145.667 112.333L146.333 112.667L145.667 112.333M191 112L192 113L191 112M200 112L201 113L200 112z"/>
<path style="fill:#646463; stroke:none;" d="M204 112L203 116L204 116L204 112z"/>
<path style="fill:#899096; stroke:none;" d="M205 112L206 113L205 112z"/>
<path style="fill:#b1aba8; stroke:none;" d="M56 113L56 114L59 114L56 113z"/>
<path style="fill:#899096; stroke:none;" d="M113.333 113.667L113.667 114.333L113.333 113.667M117.667 113.333L118.333 113.667L117.667 113.333M133 113L134 114L133 113z"/>
<path style="fill:#8e756f; stroke:none;" d="M178 113L179 114L178 113M186 113L187 114L186 113M202 113L203 114L202 113z"/>
<path style="fill:#899096; stroke:none;" d="M206 113L207 114L206 113z"/>
<path style="fill:#646463; stroke:none;" d="M299 113L282 128C282.902 130.73 285.454 133.704 285.701 136.522C286.165 141.808 276.089 147.785 272 149L272 152L275 153C269.891 155.804 266.074 166.412 275 163L274 168L300 168L300 131L299 113z"/>
<path style="fill:#b1aba8; stroke:none;" d="M59 114L59 115L62 115L59 114z"/>
<path style="fill:#8e756f; stroke:none;" d="M63 114L64 115L63 114z"/>
<path style="fill:#b1aba8; stroke:none;" d="M70 114L70 115L74 115L70 114z"/>
<path style="fill:#899096; stroke:none;" d="M88 114L89 115L88 114z"/>
<path style="fill:#646463; stroke:none;" d="M117 114L117 115L120 115L117 114z"/>
<path style="fill:#899096; stroke:none;" d="M120.333 114.667L120.667 115.333L120.333 114.667z"/>
<path style="fill:#b1aba8; stroke:none;" d="M121 114L121 117L122 117L121 114z"/>
<path style="fill:#899096; stroke:none;" d="M147 114L148 115L147 114z"/>
<path style="fill:#8e756f; stroke:none;" d="M167 114L151 117C155.667 124.849 164.919 120.441 169 115L167 114z"/>
<path style="fill:#ccbb51; stroke:none;" d="M168 114L169 115L168 114z"/>
<path style="fill:#899096; stroke:none;" d="M192 114L191 116L192 114M200 114L201 115L200 114z"/>
<path style="fill:#8e756f; stroke:none;" d="M203 114L204 115L203 114z"/>
<path style="fill:#899096; stroke:none;" d="M208 117L209 117L211 115C208.687 113.883 207.988 114.61 208 117z"/>
<path style="fill:#b1aba8; stroke:none;" d="M63 115L63 116L67 116L63 115z"/>
<path style="fill:#899096; stroke:none;" d="M81 115L82 116L81 115z"/>
<path style="fill:#ccbb51; stroke:none;" d="M116 115L116 116L118 116L118 117L112 116L111 116L107 118L106 123C119.511 129.585 136.015 127.702 150 123.647C154.406 122.37 159.92 124.909 163 121C156.529 120.999 145.455 117.993 141 124L140 124L138 123L139 120L130 119L129 119L116 115z"/>
<path style="fill:#b1aba8; stroke:none;" d="M118.667 115.333L119.333 115.667L118.667 115.333z"/>
<path style="fill:#ccbb51; stroke:none;" d="M121 115L122 116L121 115z"/>
<path style="fill:#8e756f; stroke:none;" d="M123 115L124 116L123 115z"/>
<path style="fill:#899096; stroke:none;" d="M124 115L125 116L124 115M133 115L134 116L133 115M136 115L137 116L136 115M145 115L146 116L145 115z"/>
<path style="fill:#ccbb51; stroke:none;" d="M149 115L150 116L149 115M169 115L170 116L169 115z"/>
<path style="fill:#899096; stroke:none;" d="M170 115L171 116L170 115z"/>
<path style="fill:#b1aba8; stroke:none;" d="M183 115L184 116L183 115z"/>
<path style="fill:#899096; stroke:none;" d="M186.667 115.333L187.333 115.667L186.667 115.333z"/>
<path style="fill:#8e756f; stroke:none;" d="M204 115L206 117L204 115z"/>
<path style="fill:#899096; stroke:none;" d="M213 115L216 117L213 115z"/>
<path style="fill:#b1aba8; stroke:none;" d="M57 116L57 117L60 117L57 116M67 116L67 117L70 117L67 116z"/>
<path style="fill:#ccbb51; stroke:none;" d="M128 116L129 117L128 116z"/>
<path style="fill:#899096; stroke:none;" d="M135 116L136 117L135 116M137 116L138 117L137 116M139 116L140 117L139 116M149 116L150 117L149 116z"/>
<path style="fill:#646463; stroke:none;" d="M167 116L168 117L167 116z"/>
<path style="fill:#899096; stroke:none;" d="M168 116L169 117L168 116z"/>
<path style="fill:#8e756f; stroke:none;" d="M175 116L176 117L175 116z"/>
<path style="fill:#b1aba8; stroke:none;" d="M180 116L181 117L180 116z"/>
<path style="fill:#8e756f; stroke:none;" d="M181 116L182 117L181 116z"/>
<path style="fill:#899096; stroke:none;" d="M189 116L190 117L189 116z"/>
<path style="fill:#ccbb51; stroke:none;" d="M202 116L202 117L205 119L206 118L202 116z"/>
<path style="fill:#b1aba8; stroke:none;" d="M204 116L205 117L204 116M63 117L64 118L63 117M72 117L72 118L76 118L72 117z"/>
<path style="fill:#899096; stroke:none;" d="M136 117L137 118L136 117M140.667 117.333L141.333 117.667L140.667 117.333M143 117L143 118L147 118L143 117z"/>
<path style="fill:#8e756f; stroke:none;" d="M147 117L148 118L147 117z"/>
<path style="fill:#899096; stroke:none;" d="M150 117L151 118L150 117M171.333 117.667L171.667 118.333L171.333 117.667z"/>
<path style="fill:#8e756f; stroke:none;" d="M183 117L184 118L183 117z"/>
<path style="fill:#ccbb51; stroke:none;" d="M201 117L202 118L201 117z"/>
<path style="fill:#899096; stroke:none;" d="M211 117L212 118L211 117z"/>
<path style="fill:#b1aba8; stroke:none;" d="M77 118L77 119L80 119L77 118M122 118L123 119L122 118z"/>
<path style="fill:#899096; stroke:none;" d="M137 118L138 119L137 118M148 118L149 119L148 118z"/>
<path style="fill:#b1aba8; stroke:none;" d="M138 119L138 123L140 124L141 124C144.591 120.859 149.373 120.375 154 121L138 119z"/>
<path style="fill:#ccbb51; stroke:none;" d="M184 118L185 119L184 118M200.333 118.667L200.667 119.333L200.333 118.667M208 118L208 119L213 125L214 125C213.36 120.949 211.85 119.352 208 118z"/>
<path style="fill:#899096; stroke:none;" d="M213 118L214 119L213 118z"/>
<path style="fill:#b1aba8; stroke:none;" d="M19.6667 119.333L20.3333 119.667L19.6667 119.333z"/>
<path style="fill:#8e756f; stroke:none;" d="M98 119L98 120L101 120L98 119z"/>
<path style="fill:#899096; stroke:none;" d="M139 119L139 120L144 120L139 119M167 119L168 120L167 119M170 119L171 120L170 119M187 119L188 120L187 119z"/>
<path style="fill:#8e756f; stroke:none;" d="M188 119L189 120L188 119z"/>
<path style="fill:#ccbb51; stroke:none;" d="M15 120L16 121L15 120z"/>
<path style="fill:#b1aba8; stroke:none;" d="M109 120L110 121L109 120M111 120L112 121L111 120z"/>
<path style="fill:#ccbb51; stroke:none;" d="M192 120L192 121L200 121L192 120M200 121L206 128C206.862 123.34 204.927 120.287 200 121z"/>
<path style="fill:#899096; stroke:none;" d="M205 120L206 121L205 120z"/>
<path style="fill:#b1aba8; stroke:none;" d="M132 122L132 123L137 123L132 122z"/>
<path style="fill:#ccbb51; stroke:none;" d="M168 121L192 126C188.159 118.383 175.439 121.02 168 121z"/>
<path style="fill:#8e756f; stroke:none;" d="M206 121L207 124L210 123L210 122L206 121z"/>
<path style="fill:#ccbb51; stroke:none;" d="M23.6667 122.333L24.3333 122.667L23.6667 122.333z"/>
<path style="fill:#b1aba8; stroke:none;" d="M112 122L113 125L128 123L112 122z"/>
<path style="fill:#ccbb51; stroke:none;" d="M197 122L198 123L197 122z"/>
<path style="fill:#899096; stroke:none;" d="M214.333 122.667L214.667 123.333L214.333 122.667z"/>
<path style="fill:#8e756f; stroke:none;" d="M0 124L0 130C4.59409 130 15.6746 132.302 15 135L29 134L29 135L24 135L24 136L40 135L40 136L37 136L37 137L48 136L48 137L45 137L45 138L62 138L62 139L60 139L60 140L70 139L70 140L67 140L67 141L77 140L77 139L59.9853 132.483L0 124z"/>
<path style="fill:#ccbb51; stroke:none;" d="M100 124L101 125L100 124M151.667 124.333L152.333 124.667L151.667 124.333z"/>
<path style="fill:#8e756f; stroke:none;" d="M110 137L110 139L111 140L124 138L124 139L118 141L118 142C136.491 138.555 159.413 139.883 175 128L175 131L180 133L180 130L185 129L186 127C181.068 124.926 175.33 125.795 170.09 125.567C150.101 124.696 129.018 131.414 110 137z"/>
<path style="fill:#899096; stroke:none;" d="M167 125L168 126L167 125z"/>
<path style="fill:#8e756f; stroke:none;" d="M192 125L192 127L204 127L192 125z"/>
<path style="fill:#899096; stroke:none;" d="M210.667 125.333L211.333 125.667L210.667 125.333z"/>
<path style="fill:#b1aba8; stroke:none;" d="M57 126L58 127L57 126M65 126L66 127L65 126M72 128L77 128L72 128z"/>
<path style="fill:#899096; stroke:none;" d="M186.333 126.667L186.667 127.333L186.333 126.667M188 126L190 128L190 126L188 126M201 126L202 128L201 128L192 127L192 128L199 128L199 129L186 130L185 130L184 133L178 131L177 131L176 133L175 133L175 131L173 131L174 135L168 132L169 134L166 133L166 134L169 135L164 137C169.468 143.167 182.933 136.708 190 135L192 136L200 138L200 133L201 133L201 136L206 134L202 130L208 133L201 126M204 126L205 127L204 126M207 126L208 127L207 126M213 126L214 127L213 126M9 127L10 128L9 127M147 127L148 128L147 127M184 127L185 128L184 127z"/>
<path style="fill:#8e756f; stroke:none;" d="M187.667 127.333L188.333 127.667L187.667 127.333z"/>
<path style="fill:#b1aba8; stroke:none;" d="M200.667 127.333L201.333 127.667L200.667 127.333z"/>
<path style="fill:#899096; stroke:none;" d="M16 128L16 129L22 129L16 128M26 128L32 130L32 129L26 128z"/>
<path style="fill:#ccbb51; stroke:none;" d="M94 128L95 129L94 128z"/>
<path style="fill:#b1aba8; stroke:none;" d="M174 128L175 129L174 128z"/>
<path style="fill:#899096; stroke:none;" d="M185 128L186 129L185 128z"/>
<path style="fill:#8e756f; stroke:none;" d="M185 131L185 132L199 129L185 131z"/>
<path style="fill:#899096; stroke:none;" d="M207 128L208 129L207 128z"/>
<path style="fill:#8e756f; stroke:none;" d="M288 128L288 143L289 143L290 128L288 128z"/>
<path style="fill:#899096; stroke:none;" d="M24 129L23 131L24 129z"/>
<path style="fill:#b1aba8; stroke:none;" d="M166.667 129.333L167.333 129.667L166.667 129.333z"/>
<path style="fill:#646463; stroke:none;" d="M170 131L170 132L176 130L170 131z"/>
<path style="fill:#899096; stroke:none;" d="M187.667 129.333L188.333 129.667L187.667 129.333M0 130L0 132L7 132L0 130M32 132L42 132C38.8374 130.105 34.6472 128.974 32 132M125 131L125 132L134 131L125 131M137 130L138 131L137 130z"/>
<path style="fill:#b1aba8; stroke:none;" d="M146 130L147 131L146 130M158.667 130.333L159.333 130.667L158.667 130.333z"/>
<path style="fill:#899096; stroke:none;" d="M160 130L161 131L160 130z"/>
<path style="fill:#646463; stroke:none;" d="M165 130L165 131L169 131L165 130z"/>
<path style="fill:#899096; stroke:none;" d="M180 130L181 131L180 130z"/>
<path style="fill:#8e756f; stroke:none;" d="M200 130L201 131L200 130z"/>
<path style="fill:#899096; stroke:none;" d="M8 131L13 133L8 131M144 131L145 132L144 131z"/>
<path style="fill:#b1aba8; stroke:none;" d="M154 131L154 132L157 132L154 131z"/>
<path style="fill:#646463; stroke:none;" d="M159 131L159 132L164 132L159 131z"/>
<path style="fill:#8e756f; stroke:none;" d="M172 131L173 132L172 131z"/>
<path style="fill:#b1aba8; stroke:none;" d="M175 131L175 133L177 133L177 131L175 131z"/>
<path style="fill:#8e756f; stroke:none;" d="M183.333 131.667L183.667 132.333L183.333 131.667z"/>
<path style="fill:#646463; stroke:none;" d="M0 132L0 144C6.16088 145.392 19.0138 149.706 24 144L25 144L26 144L48 149L56 147L59 149L63 146.333L83 149.5L92 147C84.8457 141.283 72.7848 141.204 64 140C42.8264 137.099 21.2385 133.735 0 132z"/>
<path style="fill:#8e756f; stroke:none;" d="M4 132L5 133L4 132z"/>
<path style="fill:#b1aba8; stroke:none;" d="M6.66667 132.333L7.33333 132.667L6.66667 132.333z"/>
<path style="fill:#899096; stroke:none;" d="M48 132L48 133L51 133L48 132M113 135L113 136L124 133L113 135z"/>
<path style="fill:#646463; stroke:none;" d="M153 132L153 133L158 133L153 132z"/>
<path style="fill:#b1aba8; stroke:none;" d="M169.667 132.333L170.333 132.667L169.667 132.333z"/>
<path style="fill:#899096; stroke:none;" d="M171 132L172 133L171 132z"/>
<path style="fill:#b1aba8; stroke:none;" d="M172 132L172 134L174 134L172 132z"/>
<path style="fill:#8e756f; stroke:none;" d="M8.66667 133.333L9.33333 133.667L8.66667 133.333z"/>
<path style="fill:#b1aba8; stroke:none;" d="M12 133L12 134L16 134L12 133z"/>
<path style="fill:#899096; stroke:none;" d="M65 133L67 136L65 133z"/>
<path style="fill:#b1aba8; stroke:none;" d="M144 135L147 134L144 135z"/>
<path style="fill:#646463; stroke:none;" d="M149.667 133.333L150.333 133.667L149.667 133.333z"/>
<path style="fill:#b1aba8; stroke:none;" d="M167.667 133.333L168.333 133.667L167.667 133.333z"/>
<path style="fill:#8e756f; stroke:none;" d="M170 133L170 134L174 135L174 134L170 133z"/>
<path style="fill:#899096; stroke:none;" d="M16 134L16 135L19 135L16 134z"/>
<path style="fill:#b1aba8; stroke:none;" d="M19 134L19 135L26 135L19 134z"/>
<path style="fill:#899096; stroke:none;" d="M26 134L26 135L29 135L26 134z"/>
<path style="fill:#646463; stroke:none;" d="M147 134L148 135L147 134z"/>
<path style="fill:#b1aba8; stroke:none;" d="M161 136C155.006 134.685 148.974 135.002 145 140L149 138L166 137C167.853 133.454 162.34 133.446 161 136z"/>
<path style="fill:#899096; stroke:none;" d="M163 134L164 135L163 134z"/>
<path style="fill:#8e756f; stroke:none;" d="M176 134L177 135L176 134z"/>
<path style="fill:#899096; stroke:none;" d="M29 135L29 136L40 136L29 135z"/>
<path style="fill:#646463; stroke:none;" d="M146 135L147 136L146 135z"/>
<path style="fill:#899096; stroke:none;" d="M149 135L150 136L149 135M156 135L157 136L156 135M160 135L161 136L160 135z"/>
<path style="fill:#ccbb51; stroke:none;" d="M165 135L164 137L166 137L165 135z"/>
<path style="fill:#8e756f; stroke:none;" d="M167 135L167 137L169 135L167 135z"/>
<path style="fill:#899096; stroke:none;" d="M40 136L40 137L48 137L40 136M68 136L69 137L68 136M110 136L111 137L110 136z"/>
<path style="fill:#646463; stroke:none;" d="M144 136L145 137L144 136z"/>
<path style="fill:#899096; stroke:none;" d="M161 136C161 138.436 160.214 137.615 158 137C158 141.195 151.314 139.691 149 138L144 139L144 143L96 148L96 149L99 149L99 150C93.4702 150 81.487 149.025 80 156C75.0354 152.942 60.7111 147.383 56.0239 153.564C53.447 156.962 54.0112 163.947 54 168L83 168L83 166L78 166L95 160L88 160L88 158L96 155L97 155L98 155C99.6654 157.291 100.681 156.113 102 154L99 153L113.996 152.481L141 151L143 146L145 148L164 140L161 136z"/>
<path style="fill:#646463; stroke:none;" d="M275.667 136.333L276.333 136.667L275.667 136.333z"/>
<path style="fill:#b1aba8; stroke:none;" d="M48 137L48 138L51 138L48 137z"/>
<path style="fill:#899096; stroke:none;" d="M51 137L51 138L56 139L51 137z"/>
<path style="fill:#8e756f; stroke:none;" d="M105 139L108 137L105 139z"/>
<path style="fill:#899096; stroke:none;" d="M105 141L108 138L109 138L111 141L110 137L105 141M124.667 137.333L125.333 137.667L124.667 137.333M146 137L147 138L146 137M154 137L155 138L154 137z"/>
<path style="fill:#8e756f; stroke:none;" d="M159 137L159 138L162 138L159 137M163 137L163 139L165 139L163 137M166 137L167 138L166 137M52 138L52 139L55 139L52 138z"/>
<path style="fill:#b1aba8; stroke:none;" d="M56 138L57 139L56 138z"/>
<path style="fill:#899096; stroke:none;" d="M57 138L57 139L62 139L57 138M72 138L72 139L77 139L76 142L91 145L91 144L89 142L93 141L72 138M104 138L105 139L104 138z"/>
<path style="fill:#b1aba8; stroke:none;" d="M108.333 138.667L108.667 139.333L108.333 138.667z"/>
<path style="fill:#899096; stroke:none;" d="M119 138L119 139L124 139L119 138M145 138L146 139L145 138z"/>
<path style="fill:#8e756f; stroke:none;" d="M156 138L156 139L159 139L156 138z"/>
<path style="fill:#899096; stroke:none;" d="M62 139L62 140L70 140L62 139M103 139L104 140L103 139M112 139L113 140L112 139M115.667 139.333L116.333 139.667L115.667 139.333z"/>
<path style="fill:#8e756f; stroke:none;" d="M159 139L160 140L159 139z"/>
<path style="fill:#899096; stroke:none;" d="M70.6667 140.333L71.3333 140.667L70.6667 140.333z"/>
<path style="fill:#b1aba8; stroke:none;" d="M72 140L72 141L76 141L72 140z"/>
<path style="fill:#8e756f; stroke:none;" d="M89 142L92 146L92 147L64 146.449L59 149L56 147L48 149L26 144L25 144L24 144C17.2323 149.127 7.38093 144.982 0 144L2 153L2 158L2 159L2 160L0 168L2 168L2 160L5 160L5 168L36 168C39.0589 167.999 44.7762 168.922 45.6273 164.853C46.6746 159.846 40.5368 156.324 39 152L51 151L51 152L50 168L54 168C54.1546 149.323 64.9979 149.307 80 156C83.8698 149.831 92.4908 150 99 150L99 149L96 149L96 148L144 143L144 141C133.986 141 124.042 142.53 114.06 143.069C110.746 143.249 104.599 141.985 104 146L93 146L93 145L100 143C96.4229 139.903 93.2216 140.254 89 142M106 140L106 141L109 141L106 140z"/>
<path style="fill:#899096; stroke:none;" d="M118.667 140.333L119.333 140.667L118.667 140.333M127 140L127 141L135 142L127 140z"/>
<path style="fill:#b1aba8; stroke:none;" d="M133 140L133 141L144 141L133 140z"/>
<path style="fill:#8e756f; stroke:none;" d="M152 140L153 141L152 140M74.6667 141.333L75.3333 141.667L74.6667 141.333z"/>
<path style="fill:#b1aba8; stroke:none;" d="M78 141L78 142L83 142L78 141z"/>
<path style="fill:#899096; stroke:none;" d="M112 141L112 142L118 142L112 141z"/>
<path style="fill:#8e756f; stroke:none;" d="M146 141L146 142L149 142L146 141M80 142L80 143L83 143L80 142z"/>
<path style="fill:#899096; stroke:none;" d="M162 142L163 143L162 142M220 143L220 144L224 142L220 143z"/>
<path style="fill:#8e756f; stroke:none;" d="M84.6667 143.333L85.3333 143.667L84.6667 143.333z"/>
<path style="fill:#899096; stroke:none;" d="M99 143L100 144L99 143M104.667 143.333L105.333 143.667L104.667 143.333z"/>
<path style="fill:#646463; stroke:none;" d="M111 143L112 144L111 143z"/>
<path style="fill:#8e756f; stroke:none;" d="M144 143L145 144L144 143z"/>
<path style="fill:#646463; stroke:none;" d="M272 143L273 144L272 143M279 143L280 144L279 143z"/>
<path style="fill:#899096; stroke:none;" d="M97 144L98 145L97 144M102 144L103 145L102 144M93.6667 145.333L94.3333 145.667L93.6667 145.333M98 145L99 146L98 145z"/>
<path style="fill:#646463; stroke:none;" d="M102.667 145.333L103.333 145.667L102.667 145.333z"/>
<path style="fill:#899096; stroke:none;" d="M34.6667 147.333L35.3333 147.667L34.6667 147.333z"/>
<path style="fill:#8e756f; stroke:none;" d="M280 149L283 152L280 149z"/>
<path style="fill:#899096; stroke:none;" d="M24 150L25 155L24 150M34 151L34 154L36 151L34 151M39 152L45 168L50 168L51 152L39 152M0 152L0 154L2 152L0 152z"/>
<path style="fill:#8e756f; stroke:none;" d="M63.3333 152.667L63.6667 153.333L63.3333 152.667z"/>
<path style="fill:#899096; stroke:none;" d="M102 152L102 154L104 154L104 152L102 152z"/>
<path style="fill:#646463; stroke:none;" d="M16 155L16 158L19 157L19 156L16 155M28 155L28 157L30 155L28 155z"/>
<path style="fill:#8e756f; stroke:none;" d="M56 155L58 160L56 155z"/>
<path style="fill:#899096; stroke:none;" d="M104 155L105 156L104 155M51 157L53 160L51 157z"/>
<path style="fill:#646463; stroke:none;" d="M0 158L0 160L2 160L2 158L0 158M14.6667 159.333L15.3333 159.667L14.6667 159.333M34 159L32 163L34 159z"/>
<path style="fill:#b1aba8; stroke:none;" d="M80 159L81 160L80 159z"/>
<path style="fill:#899096; stroke:none;" d="M96 159L97 160L96 159z"/>
<path style="fill:#646463; stroke:none;" d="M2 160L2 168L5 168L5 160L2 160z"/>
<path style="fill:#899096; stroke:none;" d="M40 162L40 166L41 166L40 162M151 162L152 163L151 162z"/>
<path style="fill:#8e756f; stroke:none;" d="M47.3333 163.667L47.6667 164.333L47.3333 163.667z"/>
</svg>
